Coordinates
version=1
nRows=10
nColumns=63
inDegrees=yes

Units are S.I. units (second, meters, Newtons, ...)
If the header above contains a line with 'inDegrees', this indicates whether rotational values are in degrees (yes) or radians (no).

endheader
time	pelvis_tilt	pelvis_list	pelvis_rotation	pelvis_tx	pelvis_ty	pelvis_tz	hip_flexion_r	hip_adduction_r	hip_rotation_r	knee_angle_r	knee_angle_r_beta	ankle_angle_r	subtalar_angle_r	mtp_angle_r	hip_flexion_l	hip_adduction_l	hip_rotation_l	knee_angle_l	knee_angle_l_beta	ankle_angle_l	subtalar_angle_l	mtp_angle_l	L5_S1_Flex_Ext	L5_S1_Lat_Bending	L5_S1_axial_rotation	L4_L5_Flex_Ext	L4_L5_Lat_Bending	L4_L5_axial_rotation	L3_L4_Flex_Ext	L3_L4_Lat_Bending	L3_L4_axial_rotation	L2_L3_Flex_Ext	L2_L3_Lat_Bending	L2_L3_axial_rotation	L1_L2_Flex_Ext	L1_L2_Lat_Bending	L1_L2_axial_rotation	L1_T12_Flex_Ext	L1_T12_Lat_Bending	L1_T12_axial_rotation	Abs_r3	Abs_r2	Abs_r1	Abs_t1	Abs_t2	neck_flexion	neck_bending	neck_rotation	arm_flex_r	arm_add_r	arm_rot_r	elbow_flex_r	pro_sup_r	wrist_flex_r	wrist_dev_r	arm_flex_l	arm_add_l	arm_rot_l	elbow_flex_l	pro_sup_l	wrist_flex_l	wrist_dev_l
      1.61016949	     -2.64591091	      0.78211086	     80.77909449	      0.10932591	      0.92271579	      0.38456147	     -0.67342672	     -0.14206635	    -13.17328594	      0.83487604	      0.01457134	     14.55631791	     16.93919365	      0.00000000	      1.71330553	      2.25385261	     -6.32274235	      5.87504931	      0.10253895	     10.44921262	     -8.70927157	      0.00000000	      0.03751609	     -0.00028185	      0.20080582	      0.06967113	     -0.00037486	      0.21335618	      0.06163519	     -0.00068528	      0.21335618	      0.04287714	     -0.00068528	      0.17570509	      0.03483744	     -0.00057474	      0.16315473	      0.02143669	     -0.00043658	      0.15060437	      0.26797368	     -0.00318831	      1.11682173	      0.00000000	      0.00000000	     14.54980828	     -0.92187582	     -3.30966125	      5.67231481	    -13.07375904	     41.87480271	     33.92828867	     77.18315082	     -6.81630540	     -1.38888921	      9.65563008	    -16.84683514	     70.18409671	     21.63580330	     84.15213896	    -19.95491524	     -8.98907775
      1.62711864	     -2.65001949	      0.93292629	     80.79643409	      0.10933628	      0.92321494	      0.38473540	     -0.86262602	     -0.19472207	    -13.09128036	      0.83964264	      0.01465453	     14.44080716	     16.71066465	      0.00000000	      1.61484720	      2.22403079	     -6.87283474	      6.05686904	      0.10571231	     10.37441375	     -7.74346955	      0.00000000	      0.02519852	     -0.00210419	      0.25524866	      0.04679616	     -0.00279858	      0.27120170	      0.04139864	     -0.00511614	      0.27120170	      0.02879938	     -0.00511614	      0.22334258	      0.02339934	     -0.00429087	      0.20738953	      0.01439843	     -0.00325940	      0.19143649	      0.17999047	     -0.02380306	      1.41961646	      0.00000000	      0.00000000	     14.53826033	     -0.74844171	     -3.38635684	      5.68652170	    -13.22014822	     42.23458407	     33.74169431	     76.71618546	     -7.33064031	     -1.79623474	      9.94259013	    -16.79025809	     70.78154104	     21.46797088	     83.57349419	    -19.98030132	     -9.74047151
      1.64406780	     -2.61271054	      1.00733882	     80.85347614	      0.10920474	      0.92372151	      0.38494777	     -0.95538828	     -0.19434237	    -13.41878027	      0.86273353	      0.01505754	     14.28599534	     16.83484389	      0.00000000	      1.60946902	      2.25948038	     -5.60941450	      6.23506367	      0.10882239	      9.45607023	     -9.65630632	      0.00000000	      0.01787212	      0.00256333	      0.31523535	      0.03319031	      0.00340923	      0.33493755	      0.02936210	      0.00623249	      0.33493755	      0.02042604	      0.00623249	      0.27583093	      0.01659605	      0.00522715	      0.25612872	      0.01021213	      0.00397060	      0.23642651	      0.12765874	      0.02899692	      1.75324442	      0.00000000	      0.00000000	     14.48193314	     -0.71409697	     -3.64561526	      5.32296406	    -13.22668400	     41.14612068	     33.81329469	     78.28945489	     -8.28682733	     -1.62235679	     10.13546557	    -16.72681466	     70.91205866	     21.51624670	     83.47180542	    -19.73136598	     -9.58810994
      1.66101695	     -2.56537473	      1.06429571	     80.90118053	      0.10901290	      0.92428092	      0.38506233	     -1.04614679	     -0.18385645	    -13.83632704	      0.86745681	      0.01513998	     14.04436259	     17.01898759	      0.00000000	      1.59332479	      2.26559633	     -4.75049840	      6.36456415	      0.11108260	      8.71661949	    -10.88465765	      0.00000000	      0.01450283	      0.00833361	      0.35239843	      0.02693321	      0.01108370	      0.37442333	      0.02382670	      0.02026235	      0.37442333	      0.01657528	      0.02026235	      0.30834863	      0.01346733	      0.01699390	      0.28632373	      0.00828692	      0.01290877	      0.26429882	      0.10359227	      0.09427149	      1.95993435	      0.00000000	      0.00000000	     14.27350298	     -0.77053364	     -3.92477226	      5.11044949	    -13.26923053	     40.50034428	     33.69462981	     78.63547104	     -8.22438738	     -1.57008501	     10.15706700	    -16.65248341	     70.72226132	     21.50402226	     82.87057900	    -18.64541780	     -9.32593716
      1.67796610	     -2.48744119	      1.12839703	     80.91312897	      0.10881116	      0.92484262	      0.38510545	     -1.15765881	     -0.14359028	    -14.09511527	      0.86739979	      0.01513898	     13.72898223	     16.95697020	      0.00000000	      1.58215948	      2.22384023	     -4.19571300	      6.50662677	      0.11356206	      8.32486892	    -11.66655657	      0.00000000	      0.01176877	      0.01542199	      0.38121910	      0.02185577	      0.02051125	      0.40504529	      0.01933490	      0.03749703	      0.40504529	      0.01345052	      0.03749703	      0.33356671	      0.01092848	      0.03144853	      0.30974052	      0.00672467	      0.02388867	      0.28591432	      0.08406311	      0.17445667	      2.12022627	      0.00000000	      0.00000000	     13.96564751	     -0.93353382	     -4.47037644	      5.04445360	    -13.39258854	     40.78194076	     33.52435044	     78.30668174	     -8.69587422	     -1.68457267	     10.25066787	    -16.62813377	     71.28939301	     21.48920268	     82.16860583	    -17.16817086	     -8.63745884
      1.69491525	     -2.47802699	      1.16481259	     80.80356900	      0.10864840	      0.92517684	      0.38494185	     -1.22306171	     -0.19251900	    -14.19142203	      0.90945604	      0.01587300	     13.58025207	     16.89571540	      0.00000000	      1.54784269	      2.23782124	     -4.15197369	      6.52678566	      0.11391390	      8.34815535	    -11.68897598	      0.00000000	      0.01269221	      0.01771398	      0.37972518	      0.02357071	      0.02355959	      0.40345800	      0.02085204	      0.04306976	      0.40345800	      0.01450593	      0.04306976	      0.33225953	      0.01178599	      0.03612234	      0.30852671	      0.00725233	      0.02743895	      0.28479389	      0.09065920	      0.20038403	      2.11191754	      0.00000000	      0.00000000	     13.94780166	     -0.92015518	     -4.53318391	      4.97336134	    -13.44567038	     40.79180389	     33.42746252	     78.29764997	     -8.67339983	     -1.64702985	      9.96729047	    -16.63807340	     71.34812024	     21.45127945	     82.15413464	    -17.07651043	     -8.55396683
      1.71186441	     -2.29571982	      1.17482151	     80.91337985	      0.10816236	      0.92566064	      0.38471206	     -1.32886442	     -0.02851278	    -14.68374096	      0.89995852	      0.01570724	     13.11757208	     16.92883550	      0.00000000	      1.44911435	      2.15765590	     -2.65279044	      6.31861402	      0.11028062	      8.08670343	    -13.59641047	      0.00000000	      0.02543550	      0.03154188	      0.37615045	      0.04723627	      0.04195070	      0.39965985	      0.04178799	      0.07669092	      0.39965985	      0.02907024	      0.07669092	      0.32913164	      0.02361941	      0.06432020	      0.30562224	      0.01453385	      0.04885837	      0.28211284	      0.18168325	      0.35680803	      2.09203594	      0.00000000	      0.00000000	     13.43990845	     -1.42391351	     -5.98563115	      4.97262099	    -13.57951774	     41.34824329	     33.11872525	     77.29087061	     -8.10975513	     -1.57353587	     10.15312938	    -16.61264436	     73.03859170	     21.41913675	     81.00970691	    -15.74413054	     -7.28965065
      1.72881356	     -2.22470584	      1.16854498	     80.88874025	      0.10796805	      0.92597119	      0.38452683	     -1.35693144	      0.01922441	    -14.80250596	      0.93635824	      0.01634253	     12.90105828	     16.79747643	      0.00000000	      1.47388522	      2.08030067	     -2.72859644	      6.26996630	      0.10943156	      8.63389105	    -13.26227393	      0.00000000	      0.03581800	      0.03304393	      0.37613865	      0.06651761	      0.04394843	      0.39964731	      0.05884539	      0.08034301	      0.39964731	      0.04093639	      0.08034301	      0.32912132	      0.03326060	      0.06738318	      0.30561265	      0.02046641	      0.05118505	      0.28210399	      0.25584440	      0.37379954	      2.09197032	      0.00000000	      0.00000000	     13.33012808	     -1.63041832	     -6.97501994	      4.98388151	    -13.63258783	     41.89961074	     32.86596826	     76.64915024	     -7.76239094	     -1.63791300	     10.17316512	    -16.66211205	     74.43528870	     21.33374136	     81.13618543	    -15.95129559	     -7.08836661
      1.74576271	     -2.14852713	      1.17526565	     81.03748693	      0.10756965	      0.92629854	      0.38426991	     -1.39952389	      0.07953245	    -15.18989392	      0.98117630	      0.01712476	     12.83827214	     16.92296265	      0.00000000	      1.42975309	      2.03415348	     -2.17813187	      6.05420143	      0.10566575	      8.93563809	    -13.57756976	      0.00000000	      0.04431207	      0.03462277	      0.34784720	      0.08229194	      0.04604829	      0.36958765	      0.07280029	      0.08418181	      0.36958765	      0.05064426	      0.08418181	      0.30436630	      0.04114818	      0.07060276	      0.28262585	      0.02531991	      0.05363067	      0.26088540	      0.31651665	      0.39165972	      1.93462179	      0.00000000	      0.00000000	     13.21984896	     -1.83021314	     -7.92488594	      4.94480265	    -13.63482612	     42.13179180	     32.67837195	     76.22735007	     -7.23224369	     -1.42080303	     10.36176507	    -16.68170065	     76.97162189	     21.10283041	     80.39581166	    -16.67306073	     -7.28381925
      1.76271186	     -2.10924850	      1.16913790	     80.96167624	      0.10760356	      0.92657087	      0.38402083	     -1.38803867	      0.11761476	    -14.82907236	      1.01590321	      0.01773086	     12.88302021	     16.49551415	      0.00000000	      1.38912258	      1.94100952	     -3.14482186	      5.84112469	      0.10194686	      9.76086353	    -11.88446373	      0.00000000	      0.05361467	      0.03096661	      0.34747634	      0.09956780	      0.04118559	      0.36919361	      0.08808354	      0.07529221	      0.36919361	      0.06127621	      0.07529221	      0.30404180	      0.04978658	      0.06314711	      0.28232452	      0.03063542	      0.04796728	      0.26060725	      0.38296423	      0.35030048	      1.93255915	      0.00000000	      0.00000000	     13.15610671	     -1.99349696	     -8.76954695	      5.05643322	    -13.63598991	     42.92952228	     32.44209490	     75.35613964	     -6.98177599	     -1.36940431	     10.37069801	    -16.70114278	     78.56621285	     20.80297247	     80.65566370	    -17.34366319	     -7.57745319
